<?xml version="1.0" encoding="UTF-8"?>
<svg width="126px" height="100px" viewBox="0 0 126 100" version="1.1" xmlns="http://www.w3.org/2000/svg" xmlns:xlink="http://www.w3.org/1999/xlink">
    <!-- Generator: Sketch 55.1 (78136) - https://sketchapp.com -->
    <title>Group 25</title>
    <desc>Created with Sketch.</desc>
    <defs>
        <polygon id="path-1" points="0.767664516 0.44123871 3.83432258 0.44123871 3.83432258 54.6285935 0.767664516 54.6285935"></polygon>
        <polygon id="path-3" points="0.252180645 0.291870968 99.2266323 0.291870968 99.2266323 3.35483871 0.252180645 3.35483871"></polygon>
    </defs>
    <g id="Page-1" stroke="none" stroke-width="1" fill="none" fill-rule="evenodd">
        <g id="HOME/UPLOAD" transform="translate(-619.000000, -390.000000)">
            <g id="Group" transform="translate(500.000000, 390.000000)">
                <g id="Group-25" transform="translate(119.000000, 0.000000)">
                    <path d="M86.7171021,19.0791589 L90.0768433,19.0791589 C90.9246004,19.0791589 91.6118433,18.391916 91.6118433,17.5441589 C91.6118433,16.6964018 90.9246004,16.0091589 90.0768433,16.0091589 L86.7171021,16.0091589 C85.869345,16.0091589 85.1821021,16.6964018 85.1821021,17.5441589 C85.1821021,18.391916 85.869345,19.0791589 86.7171021,19.0791589 Z" id="Line-Copy" fill="#4A4A4A" fill-rule="nonzero"></path>
                    <path d="M16.0281372,19.0791589 L19.3878784,19.0791589 C20.2356355,19.0791589 20.9228784,18.391916 20.9228784,17.5441589 C20.9228784,16.6964018 20.2356355,16.0091589 19.3878784,16.0091589 L16.0281372,16.0091589 C15.1803801,16.0091589 14.4931372,16.6964018 14.4931372,17.5441589 C14.4931372,18.391916 15.1803801,19.0791589 16.0281372,19.0791589 Z" id="Line" fill="#4A4A4A" fill-rule="nonzero"></path>
                    <path d="M97.0886968,72.2142452 L85.6352774,60.757471 C85.2830194,60.4052129 84.7865032,60.2542452 84.2966968,60.3314065 C83.8035355,60.4152774 83.3908903,60.7272774 83.169471,61.173471 L79.881729,67.9536 L75.3459871,54.7757935 C75.3325677,54.7221161 75.3157935,54.6751484 75.2923097,54.6315355 L71.6221161,43.949729 L95.6226323,52.2093419 L88.8559226,55.4970839 C88.4030194,55.7117935 88.0876645,56.1345032 88.0105032,56.6243097 C87.9266323,57.1141161 88.0876645,57.6106323 88.4332129,57.9628903 L99.8966968,69.4163097 L97.0886968,72.2142452 Z M22.6548903,53.6921806 L22.6548903,49.4717935 L36.2621161,35.8712774 L43.3945032,43.0036645 C43.9715355,43.5806968 44.9813419,43.5806968 45.5550194,43.0036645 L66.8783742,21.6836645 L83.7263742,38.5249548 L83.7263742,44.8689548 L69.7736,40.0648258 C69.1797935,39.8568258 68.5390194,40.0514065 68.1498581,40.4942452 C68.1431484,40.4942452 68.1431484,40.4942452 68.1364387,40.5009548 C67.7103742,40.9001806 67.5426323,41.5208258 67.7439226,42.1012129 L71.7261161,53.6921806 L22.6548903,53.6921806 Z M22.6548903,3.06430968 L83.7263742,3.06430968 L83.7263742,34.1871484 L67.9653419,18.4361806 C67.3883097,17.8591484 66.3717935,17.8591484 65.7981161,18.4361806 L44.4747613,39.749471 L37.3423742,32.6237935 C36.7686968,32.0467613 35.7488258,32.0467613 35.1717935,32.6237935 L22.6548903,45.1339871 L22.6548903,3.06430968 Z M92.1268903,57.3120516 L100.302632,53.3432774 C100.859535,53.0715355 101.198374,52.4911484 101.161471,51.8705032 C101.127923,51.2498581 100.715277,50.7130839 100.131535,50.5151484 L86.7926968,45.925729 L86.7926968,19.093729 L86.7926968,1.53114839 C86.7926968,0.682374194 86.1049548,0.00134193548 85.2595355,0.00134193548 L21.121729,0.00134193548 C20.2729548,0.00134193548 19.5885677,0.682374194 19.5885677,1.53114839 L19.5885677,19.093729 L19.5885677,55.2253419 C19.5885677,56.0707613 20.2729548,56.7585032 21.121729,56.7585032 L72.7862452,56.7585032 L78.1875355,72.4557935 C78.3921806,73.0395355 78.9289548,73.445471 79.5462452,73.485729 C80.1635355,73.5326968 80.7472774,73.1837935 81.0123097,72.6268903 L84.9911484,64.4511484 L96.001729,75.4717935 C96.2936,75.7536 96.6827613,75.9146323 97.0886968,75.9146323 C97.1625032,75.9146323 97.249729,75.9079226 97.3268903,75.8911484 C97.3738581,75.8844387 97.4208258,75.877729 97.4644387,75.8576 C97.5181161,75.8508903 97.5717935,75.837471 97.6221161,75.8106323 C97.6422452,75.8106323 97.6556645,75.8039226 97.6724387,75.7972129 C97.8569548,75.7200516 98.0213419,75.6093419 98.1689548,75.4717935 L103.140826,70.4965677 C103.425987,70.2114065 103.590374,69.8222452 103.590374,69.4163097 C103.590374,69.0103742 103.425987,68.6178581 103.140826,68.3259871 L92.1268903,57.3120516 Z" id="Fill-1" fill="#4A90E2"></path>
                    <path d="M39.9188903,13.9467355 C37.4228903,13.9467355 35.3932129,15.9764129 35.3932129,18.4724129 C35.3932129,20.9650581 37.4262452,22.9947355 39.9188903,22.9947355 C42.4148903,22.9947355 44.4445677,20.9650581 44.4445677,18.4724129 C44.4445677,15.9764129 42.4148903,13.9467355 39.9188903,13.9467355 M39.9188903,26.0610581 C35.7320516,26.0610581 32.3302452,22.6558968 32.3302452,18.4724129 C32.3302452,14.2855742 35.7354065,10.8837677 39.9188903,10.8837677 C44.1023742,10.8837677 47.5075355,14.288929 47.5075355,18.4724129 C47.5075355,22.6558968 44.105729,26.0610581 39.9188903,26.0610581" id="Fill-23" fill="#4A90E2"></path>
                    <path d="M98.1699613,75.4707871 C98.0223484,75.6150452 97.8546065,75.7291097 97.6734452,75.7995613 C97.8546065,75.7190452 98.0223484,75.6083355 98.1699613,75.4707871" id="Fill-3" fill="#000000"></path>
                    <path d="M109.689135,19.0954065 L99.903071,19.0954065 C99.0576516,19.0954065 98.3699097,18.4076645 98.3699097,17.5622452 C98.3699097,16.7201806 99.0576516,16.0290839 99.903071,16.0290839 L109.689135,16.0290839 C110.534555,16.0290839 111.218942,16.7201806 111.218942,17.5622452 C111.218942,18.4076645 110.534555,19.0954065 109.689135,19.0954065" id="Fill-5" fill="#4A4A4A"></path>
                    <path d="M124.075019,23.6935484 C123.2296,23.6935484 122.541858,23.0058065 122.541858,22.1603871 L122.541858,19.0940645 L119.475535,19.0940645 C118.630116,19.0940645 117.942374,18.4096774 117.942374,17.5642581 C117.942374,16.7188387 118.630116,16.0310968 119.475535,16.0310968 L124.075019,16.0310968 C124.920439,16.0310968 125.608181,16.7188387 125.608181,17.5642581 L125.608181,22.1603871 C125.608181,23.0058065 124.920439,23.6935484 124.075019,23.6935484" id="Fill-7" fill="#4A4A4A"></path>
                    <g id="Group-11" transform="translate(121.774194, 30.413884)">
                        <mask id="mask-2" fill="white">
                            <use xlink:href="#path-1"></use>
                        </mask>
                        <g id="Clip-10"></g>
                        <path d="M2.30082581,13.7297548 C1.45540645,13.7297548 0.767664516,13.0420129 0.767664516,12.1965935 L0.767664516,1.9744 C0.767664516,1.12562581 1.45540645,0.44123871 2.30082581,0.44123871 C3.14624516,0.44123871 3.8339871,1.12562581 3.8339871,1.9744 L3.8339871,12.1965935 C3.8339871,13.0420129 3.14624516,13.7297548 2.30082581,13.7297548 M2.30082581,34.1808516 C1.45540645,34.1808516 0.767664516,33.4931097 0.767664516,32.6476903 L0.767664516,22.4221419 C0.767664516,21.5767226 1.45540645,20.8889806 2.30082581,20.8889806 C3.14624516,20.8889806 3.8339871,21.5767226 3.8339871,22.4221419 L3.8339871,32.6476903 C3.8339871,33.4931097 3.14624516,34.1808516 2.30082581,34.1808516 M2.30082581,54.6285935 C1.45540645,54.6285935 0.767664516,53.9408516 0.767664516,53.0954323 L0.767664516,42.8765935 C0.767664516,42.0311742 1.45540645,41.3400774 2.30082581,41.3400774 C3.14624516,41.3400774 3.8339871,42.0278194 3.8339871,42.8765935 L3.8339871,53.0954323 C3.8339871,53.9442065 3.14624516,54.6285935 2.30082581,54.6285935" id="Fill-9" fill="#4A4A4A" mask="url(#mask-2)"></path>
                    </g>
                    <path d="M124.075019,99.8654968 L119.475535,99.8654968 C118.630116,99.8654968 117.942374,99.1811097 117.942374,98.3356903 C117.942374,97.4869161 118.630116,96.802529 119.475535,96.802529 L122.541858,96.802529 L122.541858,93.7395613 C122.541858,92.8941419 123.2296,92.2064 124.075019,92.2064 C124.920439,92.2064 125.608181,92.8941419 125.608181,93.7395613 L125.608181,98.3356903 C125.608181,99.1811097 124.920439,99.8654968 124.075019,99.8654968" id="Fill-12" fill="#4A4A4A"></path>
                    <g id="Group-16" transform="translate(13.064516, 96.510658)">
                        <mask id="mask-4" fill="white">
                            <use xlink:href="#path-3"></use>
                        </mask>
                        <g id="Clip-15"></g>
                        <path d="M10.5045677,3.35483871 L1.78534194,3.35483871 C0.939922581,3.35483871 0.252180645,2.67045161 0.252180645,1.82503226 C0.252180645,0.976258065 0.939922581,0.291870968 1.78534194,0.291870968 L10.5045677,0.291870968 C11.3499871,0.291870968 12.037729,0.976258065 12.037729,1.82503226 C12.037729,2.67045161 11.3499871,3.35483871 10.5045677,3.35483871 M27.9430194,3.35483871 L19.2237935,3.35483871 C18.3783742,3.35483871 17.6906323,2.67045161 17.6906323,1.82503226 C17.6906323,0.976258065 18.3783742,0.291870968 19.2237935,0.291870968 L27.9430194,0.291870968 C28.7884387,0.291870968 29.4728258,0.976258065 29.4728258,1.82503226 C29.4728258,2.67045161 28.7884387,3.35483871 27.9430194,3.35483871 M45.3781161,3.35483871 L36.6588903,3.35483871 C35.813471,3.35483871 35.1290839,2.67045161 35.1290839,1.82503226 C35.1290839,0.976258065 35.813471,0.291870968 36.6588903,0.291870968 L45.3781161,0.291870968 C46.2235355,0.291870968 46.9112774,0.976258065 46.9112774,1.82503226 C46.9112774,2.67045161 46.2268903,3.35483871 45.3781161,3.35483871 M62.8165677,3.35483871 L54.1006968,3.35483871 C53.2519226,3.35483871 52.5675355,2.67045161 52.5675355,1.82503226 C52.5675355,0.976258065 53.2519226,0.291870968 54.1006968,0.291870968 L62.8165677,0.291870968 C63.6619871,0.291870968 64.349729,0.976258065 64.349729,1.82503226 C64.349729,2.67045161 63.6619871,3.35483871 62.8165677,3.35483871 M80.2550194,3.35483871 L71.5391484,3.35483871 C70.693729,3.35483871 70.0059871,2.67045161 70.0059871,1.82503226 C70.0059871,0.976258065 70.693729,0.291870968 71.5391484,0.291870968 L80.2550194,0.291870968 C81.0970839,0.291870968 81.7881806,0.976258065 81.7881806,1.82503226 C81.7881806,2.67045161 81.0970839,3.35483871 80.2550194,3.35483871 M97.693471,3.35483871 L88.9742452,3.35483871 C88.1288258,3.35483871 87.4410839,2.67045161 87.4410839,1.82503226 C87.4410839,0.976258065 88.1288258,0.291870968 88.9742452,0.291870968 L97.693471,0.291870968 C98.5422452,0.291870968 99.2266323,0.976258065 99.2266323,1.82503226 C99.2266323,2.67045161 98.5422452,3.35483871 97.693471,3.35483871" id="Fill-14" fill="#4A4A4A" mask="url(#mask-4)"></path>
                    </g>
                    <path d="M6.12962581,99.8654968 L1.53349677,99.8654968 C0.688077419,99.8654968 0.000335483871,99.1811097 0.000335483871,98.3356903 L0.000335483871,93.7395613 C0.000335483871,92.8941419 0.688077419,92.2064 1.53349677,92.2064 C2.37891613,92.2064 3.06330323,92.8941419 3.06330323,93.7395613 L3.06330323,96.802529 L6.12962581,96.802529 C6.97504516,96.802529 7.6627871,97.4869161 7.6627871,98.3356903 C7.6627871,99.1811097 6.97504516,99.8654968 6.12962581,99.8654968" id="Fill-17" fill="#4A4A4A"></path>
                    <path d="M1.53316129,44.1436387 C0.687741935,44.1436387 8.32667268e-17,43.4558968 8.32667268e-17,42.6104774 L8.32667268e-17,32.3882839 C8.32667268e-17,31.5395097 0.687741935,30.8551226 1.53316129,30.8551226 C2.37858065,30.8551226 3.06632258,31.5395097 3.06632258,32.3882839 L3.06632258,42.6104774 C3.06632258,43.4558968 2.37858065,44.1436387 1.53316129,44.1436387 M1.53316129,64.5947355 C0.687741935,64.5947355 8.32667268e-17,63.9069935 8.32667268e-17,63.0615742 L8.32667268e-17,52.8360258 C8.32667268e-17,51.9906065 0.687741935,51.3028645 1.53316129,51.3028645 C2.37858065,51.3028645 3.06632258,51.9906065 3.06632258,52.8360258 L3.06632258,63.0615742 C3.06632258,63.9069935 2.37858065,64.5947355 1.53316129,64.5947355 M1.53316129,85.0424774 C0.687741935,85.0424774 8.32667268e-17,84.3580903 8.32667268e-17,83.5093161 L8.32667268e-17,73.2871226 C8.32667268e-17,72.4417032 0.687741935,71.7539613 1.53316129,71.7539613 C2.37858065,71.7539613 3.06632258,72.4417032 3.06632258,73.2871226 L3.06632258,83.5093161 C3.06632258,84.3580903 2.37858065,85.0424774 1.53316129,85.0424774" id="Fill-19" fill="#4A4A4A"></path>
                    <path d="M1.53316129,23.6935484 C0.687741935,23.6935484 0,23.0058065 0,22.1603871 L0,17.5642581 C0,16.7188387 0.687741935,16.0310968 1.53316129,16.0310968 L6.12929032,16.0310968 C6.97806452,16.0310968 7.66245161,16.7188387 7.66245161,17.5642581 C7.66245161,18.4096774 6.97806452,19.0940645 6.12929032,19.0940645 L3.06632258,19.0940645 L3.06632258,22.1603871 C3.06632258,23.0058065 2.37858065,23.6935484 1.53316129,23.6935484" id="Fill-21" fill="#4A4A4A"></path>
                </g>
            </g>
        </g>
    </g>
</svg>