<?xml version="1.0" encoding="UTF-8"?>
<svg width="167px" height="40px" viewBox="0 0 167 40" version="1.1" xmlns="http://www.w3.org/2000/svg" xmlns:xlink="http://www.w3.org/1999/xlink">
    <!-- Generator: Sketch 55.1 (78136) - https://sketchapp.com -->
    <title>Group 39</title>
    <desc>Created with Sketch.</desc>
    <defs>
        <polygon id="path-1" points="0 44.8770732 179.376422 44.8770732 179.376422 0 0 0"></polygon>
    </defs>
    <g id="Page-1" stroke="none" stroke-width="1" fill="none" fill-rule="evenodd">
        <g id="HOME/PREDICTION" transform="translate(-50.000000, -50.000000)">
            <g id="Group-39" transform="translate(50.000000, 50.000000)">
                <path d="M114.823024,36.5346341 L114.823024,37.5326829 L114.415463,37.5326829 C113.262293,37.5326829 112.584,36.7965854 112.584,35.6017073 L112.584,32.6478049 L111.771805,32.6478049 L111.771805,31.6841463 L112.584,31.6841463 L112.584,30.3121951 L113.637659,30.3121951 L113.637659,31.6841463 L114.711805,31.6841463 L114.711805,32.6478049 L113.637659,32.6478049 L113.637659,35.6112195 C113.637659,36.2368293 113.898146,36.5346341 114.470341,36.5346341 L114.823024,36.5346341 Z" id="Fill-1" fill="#F47E20"></path>
                <path d="M116.839537,33.6817805 L116.839537,34.1734878 L118.716366,34.1734878 L118.716366,33.6817805 C118.716366,32.8900732 118.362951,32.5395854 117.76222,32.5395854 C117.179049,32.5395854 116.839537,32.8900732 116.839537,33.6817805 L116.839537,33.6817805 Z M119.846122,35.6559268 C119.74661,36.8851951 118.990024,37.5883659 117.738805,37.5883659 C116.531488,37.5883659 115.774902,36.7966585 115.774902,35.4137317 L115.774902,33.6920244 C115.774902,32.3200732 116.531488,31.543 117.74978,31.543 C118.990024,31.543 119.767829,32.3200732 119.767829,33.6920244 L119.767829,34.975439 L116.839537,34.975439 L116.839537,35.4137317 C116.839537,36.2039756 117.179049,36.5661707 117.76222,36.5661707 C118.409049,36.5661707 118.684171,36.2815366 118.780756,35.6559268 L119.846122,35.6559268 Z" id="Fill-3" fill="#F47E20"></path>
                <path d="M120.918951,35.4710244 L120.918951,33.6483415 C120.918951,32.3085854 121.666756,31.5424878 122.87261,31.5424878 C124.123829,31.5424878 124.837244,32.3085854 124.880415,33.6483415 L123.805537,33.6483415 C123.784317,32.9122439 123.466024,32.5610244 122.88578,32.5610244 C122.324561,32.5610244 121.994561,32.9122439 121.994561,33.6483415 L121.994561,35.4710244 C121.994561,36.2034634 122.324561,36.5663902 122.88578,36.5663902 C123.477732,36.5663902 123.805537,36.2034634 123.839195,35.4710244 L124.904561,35.4710244 C124.870902,36.8188293 124.10261,37.5885854 122.87261,37.5885854 C121.666756,37.5885854 120.918951,36.8188293 120.918951,35.4710244" id="Fill-5" fill="#F47E20"></path>
                <path d="M129.884488,33.9440244 L129.884488,37.4671951 L128.820585,37.4671951 L128.820585,33.9769512 C128.820585,32.9467073 128.545463,32.5508537 128.009122,32.5508537 C127.403268,32.5508537 127.022049,33.0337805 127.022049,33.8891463 L127.022049,37.4671951 L125.955951,37.4671951 L125.955951,29.5442683 L127.022049,29.5442683 L127.022049,32.2442683 C127.306683,31.8154878 127.734,31.542561 128.293756,31.542561 C129.302049,31.542561 129.884488,32.3086585 129.884488,33.9440244" id="Fill-7" fill="#F47E20"></path>
                <path d="M135.195073,33.8343415 L135.195073,37.4672683 L134.129707,37.4672683 L134.129707,33.8892195 C134.129707,32.9467805 133.878732,32.5509268 133.318244,32.5509268 C132.715317,32.5509268 132.331171,33.0338537 132.331171,33.8892195 L132.331171,37.4672683 L131.265805,37.4672683 L131.265805,31.6845854 L132.02239,31.6845854 L132.132878,32.3314146 C132.42922,31.8375122 132.912878,31.5426341 133.569951,31.5426341 C134.569463,31.5426341 135.195073,32.2553171 135.195073,33.8343415" id="Fill-9" fill="#F47E20"></path>
                <path d="M139.438829,35.4045854 L139.438829,33.7370244 C139.438829,32.9233659 139.078098,32.572878 138.473707,32.572878 C137.882488,32.572878 137.519561,32.9233659 137.519561,33.7370244 L137.519561,35.4045854 C137.519561,36.2145854 137.882488,36.5658049 138.473707,36.5658049 C139.078098,36.5658049 139.438829,36.2145854 139.438829,35.4045854 M136.444683,35.4045854 L136.444683,33.7370244 C136.444683,32.320439 137.22322,31.5426341 138.473707,31.5426341 C139.735902,31.5426341 140.514439,32.320439 140.514439,33.7370244 L140.514439,35.4045854 C140.514439,36.8189756 139.735902,37.5989756 138.473707,37.5989756 C137.22322,37.5989756 136.444683,36.8189756 136.444683,35.4045854" id="Fill-11" fill="#F47E20"></path>
                <mask id="mask-2" fill="white">
                    <use xlink:href="#path-1"></use>
                </mask>
                <g id="Clip-14"></g>
                <polygon id="Fill-13" fill="#F47E20" mask="url(#mask-2)" points="141.798293 37.467561 142.861463 37.467561 142.861463 29.5226829 141.798293 29.5226829"></polygon>
                <path d="M147.141732,35.4045854 L147.141732,33.7370244 C147.141732,32.9233659 146.778073,32.572878 146.175878,32.572878 C145.581732,32.572878 145.221,32.9233659 145.221,33.7370244 L145.221,35.4045854 C145.221,36.2145854 145.581732,36.5658049 146.175878,36.5658049 C146.778073,36.5658049 147.141732,36.2145854 147.141732,35.4045854 M144.143195,35.4045854 L144.143195,33.7370244 C144.143195,32.320439 144.924659,31.5426341 146.175878,31.5426341 C147.435878,31.5426341 148.21661,32.320439 148.21661,33.7370244 L148.21661,35.4045854 C148.21661,36.8189756 147.435878,37.5989756 146.175878,37.5989756 C144.924659,37.5989756 144.143195,36.8189756 144.143195,35.4045854" id="Fill-15" fill="#F47E20" mask="url(#mask-2)"></path>
                <path d="M152.330195,35.1191463 L152.330195,33.6703659 C152.330195,32.9240244 151.946049,32.5610976 151.41922,32.5610976 C150.816293,32.5610976 150.46361,32.9240244 150.46361,33.7369512 L150.46361,35.1191463 C150.46361,35.8632927 150.816293,36.2269512 151.41922,36.2269512 C151.987024,36.2269512 152.330195,35.8632927 152.330195,35.1191463 L152.330195,35.1191463 Z M153.405805,31.6845122 L153.405805,37.7613415 C153.405805,38.8596341 152.657268,39.5847561 151.461659,39.5847561 C150.298976,39.5847561 149.574585,38.8823171 149.531415,37.7847561 L150.573366,37.7847561 C150.616537,38.3013415 150.923854,38.5962195 151.461659,38.5962195 C152.000195,38.5962195 152.330195,38.2779268 152.330195,37.7613415 L152.330195,36.8628049 C152.044098,37.105 151.670195,37.2367073 151.242878,37.2367073 C150.156293,37.2367073 149.389463,36.402561 149.389463,35.1191463 L149.389463,33.7369512 C149.389463,32.3767073 150.156293,31.542561 151.231902,31.542561 C151.769707,31.542561 152.218244,31.7503659 152.536537,32.1440244 L152.624341,31.6845122 L153.405805,31.6845122 Z" id="Fill-16" fill="#F47E20" mask="url(#mask-2)"></path>
                <path d="M154.840976,37.4668293 L155.904146,37.4668293 L155.904146,31.6841463 L154.840976,31.6841463 L154.840976,37.4668293 Z M154.698293,30.0487805 C154.698293,29.6543902 154.974146,29.3697561 155.368537,29.3697561 C155.762195,29.3697561 156.047561,29.6543902 156.047561,30.0487805 C156.047561,30.4219512 155.762195,30.7190244 155.368537,30.7190244 C154.974146,30.7190244 154.698293,30.4343902 154.698293,30.0487805 L154.698293,30.0487805 Z" id="Fill-17" fill="#F47E20" mask="url(#mask-2)"></path>
                <path d="M158.275317,33.6817805 L158.275317,34.1734878 L160.150683,34.1734878 L160.150683,33.6817805 C160.150683,32.8900732 159.798732,32.5395854 159.196537,32.5395854 C158.614829,32.5395854 158.275317,32.8900732 158.275317,33.6817805 L158.275317,33.6817805 Z M161.281902,35.6559268 C161.183854,36.8851951 160.425073,37.5883659 159.175317,37.5883659 C157.966537,37.5883659 157.210683,36.7966585 157.210683,35.4137317 L157.210683,33.6920244 C157.210683,32.3200732 157.966537,31.543 159.184829,31.543 C160.425073,31.543 161.204341,32.3200732 161.204341,33.6920244 L161.204341,34.975439 L158.275317,34.975439 L158.275317,35.4137317 C158.275317,36.2039756 158.614829,36.5661707 159.196537,36.5661707 C159.844829,36.5661707 160.117756,36.2815366 160.217268,35.6559268 L161.281902,35.6559268 Z" id="Fill-18" fill="#F47E20" mask="url(#mask-2)"></path>
                <path d="M162.125341,35.6893659 L163.178268,35.6893659 C163.188512,36.2147317 163.507537,36.6222927 164.176317,36.6222927 C164.738268,36.6222927 165.053634,36.3471707 165.053634,35.8979024 C165.053634,34.7344878 162.213146,35.1281463 162.213146,33.154 C162.213146,32.1683902 162.948512,31.5427805 164.079,31.5427805 C165.306073,31.5427805 165.953634,32.308878 165.999,33.3837561 L164.954854,33.3837561 C164.945341,32.836439 164.660707,32.5071707 164.079,32.5071707 C163.57339,32.5071707 163.267537,32.7596098 163.267537,33.1657073 C163.267537,34.2618049 166.120463,33.8344878 166.120463,35.9081463 C166.120463,36.928878 165.393146,37.6093659 164.199732,37.6093659 C162.882659,37.6093659 162.137049,36.7547317 162.125341,35.6893659" id="Fill-19" fill="#F47E20" mask="url(#mask-2)"></path>
                <path d="M50.6278537,13.6116341 C50.6278537,12.5872439 50.3454146,11.7106585 49.776878,10.981878 C49.2112683,10.254561 48.2805366,9.88943902 46.986878,9.88943902 C45.719561,9.88943902 44.8290732,10.254561 44.3176098,10.981878 C43.8039512,11.7106585 43.5463902,12.5872439 43.5463902,13.6116341 L43.5463902,13.8143171 C43.5463902,14.0835854 43.6810244,14.2189512 43.9532195,14.2189512 L50.2210244,14.2189512 C50.4924878,14.2189512 50.6278537,14.0835854 50.6278537,13.8143171 L50.6278537,13.6116341 Z M53.4588293,21.0962683 C53.7010244,21.3399268 53.8159024,21.6099268 53.8041951,21.9055366 C53.7888293,22.2040732 53.6761463,22.4857805 53.4588293,22.7557805 C52.9202927,23.4304146 52.1249268,24.0501707 51.072,24.6157805 C50.0205366,25.1828537 48.7663902,25.4667561 47.3102927,25.4667561 C46.176878,25.4667561 45.1576098,25.2838293 44.2546829,24.9209024 C43.3517561,24.5565122 42.5761463,24.0501707 41.9285854,23.4033415 C41.2817561,22.7557805 40.782,21.9999268 40.4329756,21.1372439 C40.0817561,20.2730976 39.9054146,19.3577317 39.9054146,18.3860244 L39.9054146,13.6116341 C39.9054146,12.6413902 40.0612683,11.7172439 40.3707805,10.8406585 C40.6817561,9.96334146 41.1405366,9.20236585 41.7478537,8.55553659 C42.3537073,7.90797561 43.0963902,7.39578049 43.9715122,7.0167561 C44.8480976,6.63992683 45.8534634,6.45041463 46.986878,6.45041463 C48.1180976,6.45041463 49.1315122,6.63992683 50.0205366,7.0167561 C50.9110244,7.39578049 51.6741951,7.90797561 52.3063902,8.55553659 C52.9400488,9.20236585 53.4259024,9.96334146 53.7632195,10.8406585 C54.0998049,11.7172439 54.2688293,12.6413902 54.2688293,13.6116341 L54.2688293,16.0387073 C54.2688293,16.4177317 54.1612683,16.7148049 53.9439512,16.9291951 C53.7288293,17.1465122 53.4317561,17.2548049 53.0549268,17.2548049 L43.9532195,17.2548049 C43.6810244,17.2548049 43.5463902,17.389439 43.5463902,17.6572439 L43.5463902,18.3860244 C43.5463902,19.4104146 43.8500488,20.2730976 44.4580976,20.9755366 C45.0639512,21.6765122 46.014439,22.027 47.3102927,22.027 C48.3346829,22.027 49.1315122,21.8455366 49.697122,21.4804146 C50.2627317,21.1174878 50.6937073,20.7728537 50.9907805,20.449439 C51.287122,20.1523659 51.5849268,20.0111463 51.8827317,20.0243171 C52.1790732,20.0382195 52.4483415,20.167 52.6890732,20.4099268 L53.4588293,21.0962683 Z" id="Fill-20" fill="#FFFFFF" mask="url(#mask-2)"></path>
                <path d="M103.689512,13.7163415 C103.689512,12.6926829 103.406341,11.8153659 102.840732,11.0873171 C102.272195,10.3592683 101.342195,9.99487805 100.048537,9.99487805 C98.7804878,9.99487805 97.8907317,10.3592683 97.3770732,11.0873171 C96.8663415,11.8153659 96.6102439,12.6926829 96.6102439,13.7163415 L96.6102439,13.9190244 C96.6102439,14.1890244 96.744878,14.3236585 97.0141463,14.3236585 L103.283415,14.3236585 C103.554146,14.3236585 103.689512,14.1890244 103.689512,13.9190244 L103.689512,13.7163415 Z M106.52122,21.2009756 C106.764146,21.4446341 106.877561,21.7153659 106.867317,22.0102439 C106.85122,22.3080488 106.737073,22.5897561 106.52122,22.8597561 C105.982683,23.535122 105.186585,24.1556098 104.13439,24.7219512 C103.082927,25.2882927 101.828049,25.5714634 100.372683,25.5714634 C99.2385366,25.5714634 98.22,25.39 97.3163415,25.024878 C96.4134146,24.6612195 95.6385366,24.1556098 94.9909756,23.5073171 C94.3434146,22.8597561 93.845122,22.1060976 93.4946341,21.2426829 C93.1434146,20.3792683 92.9678049,19.4617073 92.9678049,18.4914634 L92.9678049,13.7163415 C92.9678049,12.7460976 93.1236585,11.8219512 93.4331707,10.9453659 C93.7412195,10.0695122 94.2029268,9.30707317 94.8095122,8.6595122 C95.4168293,8.01195122 96.1565854,7.4997561 97.0339024,7.12219512 C97.9104878,6.74536585 98.9158537,6.55585366 100.048537,6.55585366 C101.181951,6.55585366 102.192439,6.74536585 103.082927,7.12219512 C103.973415,7.4997561 104.73439,8.01195122 105.368049,8.6595122 C106.002439,9.30707317 106.487561,10.0695122 106.82561,10.9453659 C107.161463,11.8219512 107.330488,12.7460976 107.330488,13.7163415 L107.330488,16.144878 C107.330488,16.5217073 107.223659,16.8187805 107.007073,17.0353659 C106.790488,17.2512195 106.49561,17.3587805 106.117317,17.3587805 L97.0141463,17.3587805 C96.744878,17.3587805 96.6102439,17.4934146 96.6102439,17.7626829 L96.6102439,18.4914634 C96.6102439,19.5165854 96.912439,20.3792683 97.5190244,21.0802439 C98.1263415,21.7819512 99.0768293,22.1317073 100.372683,22.1317073 C101.396341,22.1317073 102.192439,21.9509756 102.759512,21.5858537 C103.32439,21.2214634 103.756098,20.8782927 104.053171,20.5541463 C104.351707,20.2585366 104.646585,20.1165854 104.94439,20.1290244 C105.240732,20.1436585 105.510732,20.2709756 105.752195,20.5139024 L106.52122,21.2009756 Z" id="Fill-21" fill="#FFFFFF" mask="url(#mask-2)"></path>
                <path d="M140.403512,22.6232683 C139.087902,22.6232683 138.122049,22.2676585 137.505951,21.5549756 C136.890585,20.8422927 136.582537,19.966439 136.582537,18.9252195 L136.582537,18.1847317 L136.582537,13.444 L136.582537,13.2369268 C136.582537,12.1971707 136.842293,11.3059512 137.363268,10.5661951 C137.88278,9.82717073 138.786439,9.45619512 140.074244,9.45619512 C140.551317,9.45619512 140.995463,9.42692683 141.374488,9.52570732 C141.585951,8.37253659 141.802537,7.30570732 142.026439,6.17595122 C141.420585,6.03692683 140.770098,5.96302439 140.074244,5.96302439 C138.924732,5.96302439 137.901805,6.15619512 137.014244,6.53887805 C136.122293,6.9244878 135.369366,7.44326829 134.752537,8.10180488 C134.135707,8.75887805 133.672537,9.53229268 133.355707,10.4227805 C133.040341,11.314 132.883024,12.2513171 132.883024,13.2369268 L132.883024,18.9252195 C132.883024,19.9108293 133.061561,20.8422927 133.417171,21.7203415 C133.772049,22.5954634 134.280585,23.3637561 134.937659,24.0208293 C135.595463,24.6779024 136.383512,25.191561 137.301805,25.5610732 C138.217902,25.9320488 139.252537,26.116439 140.403512,26.116439 C140.893024,26.116439 141.364976,26.038878 141.810585,25.9759512 C141.359854,24.8622927 141.031317,23.7669268 140.819122,22.611561 C140.68522,22.6196098 140.546195,22.6232683 140.403512,22.6232683" id="Fill-22" fill="#FFFFFF" mask="url(#mask-2)"></path>
                <path d="M140.159854,22.6232683 C141.474732,22.6232683 142.440585,22.2676585 143.057415,21.5549756 C143.673512,20.8422927 143.982293,19.966439 143.982293,18.9252195 L143.982293,18.1847317 L143.982293,13.444 L143.982293,13.2369268 C143.982293,12.1971707 143.722537,11.3059512 143.200829,10.5661951 C142.680585,9.82717073 141.777659,9.45619512 140.489122,9.45619512 C140.011317,9.45619512 139.567902,9.42692683 139.187415,9.52570732 C138.977415,8.37253659 138.760829,7.30570732 138.536195,6.17595122 C139.14278,6.03692683 139.793268,5.96302439 140.489122,5.96302439 C141.640098,5.96302439 142.659366,6.15619512 143.549854,6.53887805 C144.440341,6.9244878 145.193268,7.44326829 145.810829,8.10180488 C146.427659,8.75887805 146.893756,9.53229268 147.206927,10.4227805 C147.523024,11.314 147.67961,12.2513171 147.67961,13.2369268 L147.67961,18.9252195 C147.67961,19.9108293 147.502537,20.8422927 147.145463,21.7203415 C146.789122,22.5954634 146.282049,23.3637561 145.624976,24.0208293 C144.967902,24.6779024 144.180585,25.191561 143.262293,25.5610732 C142.344,25.9320488 141.310098,26.116439 140.159854,26.116439 C139.66961,26.116439 139.221073,26.0425366 138.776195,25.978878 C139.229854,24.8674146 139.531317,23.7669268 139.744244,22.611561 C139.878878,22.6196098 140.017171,22.6232683 140.159854,22.6232683" id="Fill-23" fill="#FFFFFF" mask="url(#mask-2)"></path>
                <path d="M113.000927,25.5522927 C112.621902,25.5522927 112.326293,25.4447317 112.111171,25.228878 C111.894585,25.0122927 111.788488,24.7166829 111.788488,24.3383902 L111.788488,11.0154634 C112.178488,7.99863415 114.014341,6.59009756 118.220927,6.50741463 L119.676293,6.50741463 C120.055317,6.50741463 120.35239,6.61643902 120.56678,6.83156098 C120.782634,7.04814634 120.890195,7.34302439 120.890195,7.72204878 L120.890195,8.734 C120.890195,9.11082927 120.782634,9.40790244 120.56678,9.62302439 C120.35239,9.83960976 120.055317,9.94790244 119.676293,9.94790244 L118.463122,9.94790244 C117.438732,9.94790244 116.674829,10.264 116.178732,10.8976585 C115.678976,11.5320488 115.428,12.3603415 115.428,13.3854634 L115.428,24.3383902 C115.428,24.7166829 115.321902,25.0122927 115.104585,25.228878 C114.890195,25.4447317 114.594585,25.5522927 114.214829,25.5522927 L113.000927,25.5522927 Z" id="Fill-24" fill="#FFFFFF" mask="url(#mask-2)"></path>
                <path d="M125.334146,25.4808049 C124.956585,25.4808049 124.658049,25.3739756 124.443659,25.1573902 C124.227073,24.9415366 124.119512,24.6444634 124.119512,24.2669024 L124.119512,7.64982927 C124.119512,7.273 124.227073,6.97739024 124.443659,6.76080488 C124.658049,6.54421951 124.956585,6.43665854 125.334146,6.43665854 L126.546585,6.43665854 C126.92561,6.43665854 127.219756,6.54421951 127.437073,6.76080488 C127.653659,6.97739024 127.760488,7.273 127.760488,7.64982927 L127.760488,24.2669024 C127.760488,24.6444634 127.653659,24.9415366 127.437073,25.1573902 C127.219756,25.3739756 126.92561,25.4808049 126.546585,25.4808049 L125.334146,25.4808049 Z" id="Fill-25" fill="#FFFFFF" mask="url(#mask-2)"></path>
                <path d="M163.788073,25.4808049 C163.410512,25.4808049 163.114171,25.3739756 162.898317,25.1573902 C162.682463,24.9415366 162.574171,24.6444634 162.574171,24.2669024 L162.574171,13.3139756 C162.574171,12.2895854 162.257341,11.3932439 161.623683,10.6242195 C160.990024,9.85592683 160.026366,9.47104878 158.732707,9.47104878 C157.436122,9.47104878 156.472463,9.85592683 155.838805,10.6242195 C155.203683,11.3932439 154.887585,12.2895854 154.887585,13.3139756 L154.887585,24.2669024 C154.887585,24.6444634 154.780756,24.9415366 154.564171,25.1573902 C154.347585,25.3739756 154.050512,25.4808049 153.674415,25.4808049 L152.461976,25.4808049 C152.082951,25.4808049 151.787341,25.3739756 151.571488,25.1573902 C151.354171,24.9415366 151.24661,24.6444634 151.24661,24.2669024 L151.24661,13.3139756 C151.24661,12.3437317 151.428073,11.4122683 151.792463,10.5232439 C152.156122,9.6334878 152.661,8.85860976 153.310024,8.19568293 C153.956854,7.53714634 154.738317,7.00958537 155.65661,6.61812195 C156.574171,6.22739024 157.597829,6.03129268 158.732707,6.03129268 C159.863927,6.03129268 160.890512,6.22739024 161.80661,6.61812195 C162.721976,7.00958537 163.504171,7.53714634 164.153195,8.19568293 C164.800756,8.85860976 165.305634,9.6334878 165.668561,10.5232439 C166.033683,11.4122683 166.215146,12.3437317 166.215146,13.3139756 L166.215146,24.2669024 C166.215146,24.6444634 166.106854,24.9415366 165.891732,25.1573902 C165.674415,25.3739756 165.380268,25.4808049 165.001244,25.4808049 L163.788073,25.4808049 Z" id="Fill-26" fill="#FFFFFF" mask="url(#mask-2)"></path>
                <path d="M86.1206341,18.6024634 C86.1206341,19.6275854 85.8030732,20.4588049 85.1686829,21.0917317 C84.5357561,21.7246585 83.7067317,22.0429512 82.6801463,22.0429512 L78.8379512,22.0429512 C78.6001463,22.0429512 78.4728293,21.9302683 78.4464878,21.7202683 L78.4464878,13.2983171 C78.4464878,12.2746585 78.6938049,11.4449024 79.193561,10.8105122 C79.6281951,10.2580732 80.2640488,9.94563415 81.1018537,9.87612195 L82.6801463,9.87612195 C83.6240488,9.87612195 84.4340488,10.1922195 85.1086829,10.825878 C85.7818537,11.461 86.1206341,12.2900244 86.1206341,13.3136829 L86.1206341,18.6024634 Z M89.256,10.5844146 C88.9172195,9.73343902 88.4401463,9.00612195 87.8189268,8.40026829 C87.198439,7.79295122 86.4499024,7.31368293 85.5740488,6.96246341 C84.786,6.64856098 83.9247805,6.48246341 82.9940488,6.44953659 C82.9003902,6.43197561 82.800878,6.42026829 82.6933171,6.42026829 L81.2357561,6.42026829 C77.0313659,6.50295122 75.1933171,7.9107561 74.8040488,10.9283171 L74.8040488,18.5819756 C74.8003902,18.583439 74.7945366,18.5863659 74.7945366,18.5863659 L74.790878,32.7339268 C74.790878,33.1114878 74.8977073,33.4078293 75.1142927,33.6244146 C75.330878,33.8388049 75.6279512,33.948561 76.0055122,33.948561 L77.2186829,33.948561 C77.5969756,33.948561 77.8933171,33.8388049 78.1099024,33.6244146 C78.3250244,33.4078293 78.4333171,33.1114878 78.4333171,32.7339268 L78.4333171,25.8866098 C78.4333171,25.6144146 78.5664878,25.4805122 78.8379512,25.4805122 L82.8433171,25.4805122 C83.8413659,25.4805122 84.7647805,25.3056341 85.6150244,24.9551463 C86.4630732,24.6068537 87.1918537,24.1253902 87.798439,23.5188049 C88.4050244,22.9122195 88.8842927,22.183439 89.2347805,21.3346585 C89.5852683,20.4844146 89.7616098,19.5741707 89.7616098,18.6024634 L89.7616098,13.3136829 C89.7616098,12.343439 89.591122,11.4331951 89.256,10.5844146 L89.256,10.5844146 Z" id="Fill-27" fill="#FFFFFF" mask="url(#mask-2)"></path>
                <path d="M69.2978049,25.2996341 C68.9721951,25.507439 68.6458537,25.5652439 68.3260976,25.4723171 C68.0019512,25.3786585 67.7231707,25.1459756 67.4846341,24.7720732 L57.5509756,9.2152439 C57.3131707,8.84280488 57.2195122,8.49304878 57.27,8.16012195 C57.3190244,7.82792683 57.5085366,7.55719512 57.8341463,7.34865854 L58.8819512,6.68060976 C59.207561,6.47280488 59.5317073,6.415 59.8536585,6.50865854 C60.174878,6.60378049 60.4565854,6.835 60.695122,7.20743902 L70.6280488,22.7642683 C70.8673171,23.137439 70.9602439,23.4893902 70.9097561,23.8215854 C70.8585366,24.1537805 70.6719512,24.4223171 70.3463415,24.6308537 L69.2978049,25.2996341 Z" id="Fill-28" fill="#F58A24" mask="url(#mask-2)"></path>
                <path d="M58.4329756,25.2996341 C58.7585854,25.507439 59.0827317,25.5652439 59.4046829,25.4723171 C59.7273659,25.3786585 60.0061463,25.1459756 60.2439512,24.7720732 L70.1798049,9.2152439 C70.4154146,8.84280488 70.5090732,8.49304878 70.4607805,8.16012195 C70.4102927,7.82792683 70.2229756,7.55719512 69.8951707,7.34865854 L68.8473659,6.68060976 C68.5217561,6.47280488 68.1983415,6.415 67.8756585,6.50865854 C67.5537073,6.60378049 67.2749268,6.835 67.0363902,7.20743902 L57.1012683,22.7642683 C56.8627317,23.137439 56.7698049,23.4893902 56.819561,23.8215854 C56.8700488,24.1537805 57.059561,24.4223171 57.3851707,24.6308537 L58.4329756,25.2996341 Z" id="Fill-29" fill="#4AC7F4" mask="url(#mask-2)"></path>
                <path d="M29.0117561,17.3309024 C28.8617561,16.9087073 28.6912683,16.4857805 28.5024878,16.0643171 C27.3800488,13.5589512 25.6041951,11.0711463 23.3607805,8.86358537 C23.2334634,8.737 23.1002927,8.61334146 22.9722439,8.48968293 C22.5076098,8.22407317 21.7349268,8.10260976 21.3229756,8.10260976 C19.4710244,8.10260976 17.2137073,9.01870732 14.916878,10.4352927 C15.9463902,11.0682195 16.9612683,11.8174878 17.9161463,12.6589512 C19.1139512,13.7133415 20.1778537,14.874561 21.054439,16.0643171 C21.9815122,17.3206585 22.6993171,18.607 23.1383415,19.8348049 C23.6666341,21.3150488 23.747122,22.6233415 23.3607805,23.2635854 C23.3285854,23.317 23.2956585,23.3667561 23.2583415,23.4106585 C23.1785854,23.4999268 23.0798049,23.5738293 22.9722439,23.6374878 C22.7190732,23.8730976 22.4666341,24.1087073 22.2076098,24.3377317 C19.9305366,26.3448049 17.4141951,27.9091951 14.916878,28.9226098 C17.0198049,29.7757805 19.1080976,30.2374878 21.0280976,30.2374878 C23.8656585,30.2374878 26.2173659,29.2701707 27.8315122,27.4379756 C29.9980976,24.9779756 30.4290732,21.2923659 29.0117561,17.3309024" id="Fill-30" fill="#F58A24" mask="url(#mask-2)"></path>
                <path d="M8.7797561,16.0640244 C7.85195122,14.8076829 7.13780488,13.519878 6.69585366,12.2920732 C6.16756098,10.8118293 6.08707317,9.50280488 6.47341463,8.86329268 C6.50487805,8.81060976 6.54,8.76012195 6.57731707,8.71695122 C6.65780488,8.62695122 6.75439024,8.55304878 6.86487805,8.49012195 C7.11439024,8.25231707 7.36756098,8.01817073 7.62731707,7.78841463 C9.90439024,5.78353659 12.4214634,4.21768293 14.9173171,3.20426829 C12.8129268,2.35109756 10.7246341,1.88939024 8.80536585,1.88939024 C5.97073171,1.88939024 3.61756098,2.85670732 2.00268293,4.68890244 C-0.164634146,7.14890244 -0.595609756,10.8337805 0.822439024,14.7967073 C0.972439024,15.2189024 1.14439024,15.6410976 1.33243902,16.0640244 C2.45341463,18.5686585 4.23,21.055 6.47341463,23.2640244 C6.60219512,23.389878 6.73317073,23.5135366 6.86487805,23.6371951 C7.32731707,23.9028049 8.07146341,24.0615854 8.48414634,24.0615854 C10.337561,24.0615854 12.6204878,23.1081707 14.9173171,21.6915854 C13.8892683,21.0593902 12.8743902,20.3093902 11.9180488,19.4679268 C10.7195122,18.4135366 9.65560976,17.2515854 8.7797561,16.0640244" id="Fill-31" fill="#F58A24" mask="url(#mask-2)"></path>
                <path d="M23.138122,19.8350976 C22.6990976,18.606561 21.9812927,17.3202195 21.0542195,16.063878 C20.1776341,17.251439 19.1137317,18.4133902 17.9159268,19.4677805 C16.9617805,20.3092439 15.9461707,21.0592439 14.9173902,21.6921707 C12.620561,23.1087561 10.2673902,23.9494878 8.41543902,23.9494878 C8.0027561,23.9494878 7.32739024,23.9026585 6.86495122,23.6370488 C6.75446341,23.574122 6.65787805,23.5002195 6.57739024,23.4102195 C6.54007317,23.3670488 6.50495122,23.316561 6.4734878,23.263878 C4.23007317,21.0548537 2.4534878,18.5685122 1.3325122,16.063878 C1.14446341,16.4853415 0.972512195,16.909 0.822512195,17.3311951 C-0.596268293,21.2919268 -0.164560976,24.9775366 2.0027561,27.4382683 C3.61763415,29.2704634 5.97080488,30.2370488 8.80543902,30.2370488 C10.7247073,30.2370488 12.813,29.7760732 14.9173902,28.9229024 C17.4147073,27.9094878 19.9303171,26.3443659 22.208122,24.3380244 C22.4664146,24.109 22.7195854,23.8733902 22.9720244,23.6370488 C23.1000732,23.5133902 23.2332439,23.3897317 23.3612927,23.263878 C23.7469024,22.6236341 23.6671463,21.3153415 23.138122,19.8350976" id="Fill-32" fill="#4AC7F4" mask="url(#mask-2)"></path>
                <path d="M27.8312927,4.68860976 C26.2171463,2.85641463 23.865439,1.88982927 21.027878,1.88982927 C19.107878,1.88982927 17.0203171,2.35080488 14.9173902,3.20397561 C12.4208049,4.21739024 9.90446341,5.7832439 7.62739024,7.78885366 C7.36763415,8.01787805 7.11446341,8.2527561 6.86495122,8.48982927 C6.7332439,8.6134878 6.60226829,8.73714634 6.4734878,8.86373171 C6.08714634,9.5025122 6.16763415,10.8122683 6.69592683,12.2917805 C7.13787805,13.5195854 7.85202439,14.808122 8.77982927,16.0637317 C9.65568293,14.8739756 10.7225122,13.7134878 11.918122,12.6590976 C12.8744634,11.8176341 13.8893415,11.0683659 14.9173902,10.435439 C17.2134878,9.01812195 19.5666585,8.17885366 21.4186098,8.17885366 C21.8298293,8.17885366 22.508122,8.22421951 22.9720244,8.48982927 C23.0795854,8.5527561 23.1790976,8.62665854 23.258122,8.71739024 C23.295439,8.75982927 23.3290976,8.81031707 23.3612927,8.86373171 C25.5425122,11.280561 27.3798293,13.5590976 28.5022683,16.0637317 C28.6910488,15.6415366 28.8615366,15.2186098 29.0115366,14.7964146 C30.4295854,10.8334878 29.997878,7.14934146 27.8312927,4.68860976" id="Fill-33" fill="#4AC7F4" mask="url(#mask-2)"></path>
                <path d="M14.9170976,10.4350732 C14.8388049,10.4065366 17.3375854,8.91092683 18.8697805,8.49531707 C19.9453902,8.20263415 20.6646585,8.06214634 21.9070976,8.07970732 C22.5100244,8.0877561 22.9724634,8.49019512 22.9724634,8.49019512 C22.928561,8.40458537 21.8836829,8.44702439 21.3883171,8.54653659 C20.0624634,8.81434146 19.3849024,9.1275122 17.8051463,9.9484878 C16.8144146,10.4658049 16.1170976,11.2209268 16.1170976,11.2209268 L14.9170976,10.4350732 Z" id="Fill-34" fill="#966929" mask="url(#mask-2)"></path>
                <path d="M14.8985122,21.649 C14.9753415,21.6782683 12.4780244,23.173878 10.946561,23.5902195 C9.8687561,23.8829024 9.1487561,24.0226585 7.90778049,24.0058293 C7.30558537,23.9970488 6.84387805,23.5946098 6.84387805,23.5946098 C6.88558537,23.6809512 7.93192683,23.6385122 8.42656098,23.5382683 C9.75168293,23.2711951 10.431439,22.9580244 12.0104634,22.1363171 C13.0011951,21.6211951 13.6970488,20.8631463 13.6970488,20.8631463 L14.8985122,21.649 Z" id="Fill-35" fill="#966929" mask="url(#mask-2)"></path>
                <path d="M21.0365854,16.1297317 C21.0614634,16.0507073 22.524878,18.0409512 23.0092683,19.5533902 C23.3480488,20.6158293 23.5770732,21.0570488 23.64,22.2980244 C23.6904878,23.2448537 22.7897561,23.8770488 22.7897561,23.8770488 C22.8753659,23.8316829 23.2273171,22.4926585 22.7187805,21.2282683 C22.2117073,19.9763171 22.4268293,20.3670488 21.5385366,18.8268049 C20.9780488,17.8594878 20.1921951,17.196561 20.1921951,17.196561 L21.0365854,16.1297317 Z" id="Fill-36" fill="#0097CC" mask="url(#mask-2)"></path>
                <path d="M8.7797561,16.0640244 C8.75268293,16.1415854 6.20195122,12.6023171 6.22317073,9.78817073 C6.22829268,8.83914634 7.12170732,8.23768293 7.12170732,8.23768293 C6.97317073,8.58890244 6.64170732,9.60670732 7.11,10.8857317 C7.57536585,12.1545122 7.37195122,11.7557317 8.21268293,13.3259756 C8.7402439,14.310122 9.68268293,15.0089024 9.68268293,15.0089024 L8.7797561,16.0640244 Z" id="Fill-37" fill="#0097CC" mask="url(#mask-2)"></path>
                <path d="M125.357049,2.77680488 C124.950951,2.77680488 124.63339,2.66119512 124.402902,2.4285122 C124.170951,2.19729268 124.055341,1.879 124.055341,1.47509756 L124.055341,-0.697341463 C124.055341,-1.10197561 124.170951,-1.41880488 124.402902,-1.6514878 C124.63339,-1.88343902 124.950951,-1.99978049 125.357049,-1.99978049 L126.66022,-1.99978049 C127.064122,-1.99978049 127.381683,-1.88343902 127.615098,-1.6514878 C127.846317,-1.41880488 127.961927,-1.10197561 127.961927,-0.697341463 L127.961927,1.47509756 C127.961927,1.879 127.846317,2.19729268 127.615098,2.4285122 C127.381683,2.66119512 127.064122,2.77680488 126.66022,2.77680488 L125.357049,2.77680488 Z" id="Fill-38" fill="#FFFFFF" mask="url(#mask-2)"></path>
            </g>
        </g>
    </g>
</svg>